<svg width="74" height="74" viewBox="0 0 74 74" fill="none" xmlns="http://www.w3.org/2000/svg">
<path d="M40.5403 40.5472C44.5705 40.3416 48.6158 40.3512 52.6632 40.6746C54.6852 40.8583 56.7058 41.1022 58.7258 41.6031C59.236 41.7343 59.7392 41.8919 60.2332 42.0752C60.7354 42.2698 61.2383 42.4863 61.7358 42.8412C62.0168 43.0361 62.2587 43.282 62.449 43.5661C62.564 43.7445 62.6461 43.942 62.6916 44.1492C62.716 44.2634 62.7278 44.3799 62.7265 44.4966C62.723 44.6295 62.7018 44.7613 62.6635 44.8885C62.5936 45.0999 62.4835 45.2958 62.3394 45.4655C62.2251 45.601 62.0975 45.7247 61.9585 45.8348C61.72 46.0181 61.4649 46.1787 61.1965 46.3144C60.7102 46.5574 60.2063 46.7636 59.6891 46.9311C59.1883 47.101 58.686 47.2421 58.1817 47.3682C57.1765 47.6211 56.1707 47.8218 55.1628 47.9979C53.1477 48.346 51.1277 48.5933 49.1058 48.7886C45.0584 49.1531 41.0048 49.3004 36.9519 49.3148C32.8984 49.2977 28.8448 49.1394 24.7981 48.7667C22.7761 48.5659 20.7555 48.3145 18.7411 47.9561C17.7339 47.7759 16.7273 47.5697 15.7263 47.3066C15.224 47.1736 14.7211 47.0325 14.2189 46.8502C13.6975 46.6719 13.193 46.4474 12.7115 46.1794C12.4325 46.0229 12.175 45.8308 11.9454 45.608C11.8003 45.4642 11.6784 45.2987 11.5843 45.1174C11.5278 45.0065 11.4857 44.8888 11.4589 44.7673C11.4295 44.6398 11.4189 44.5086 11.4274 44.3781C11.442 44.1527 11.5024 43.9326 11.6049 43.7313C11.6929 43.5612 11.8035 43.4037 11.9338 43.2633C12.1527 43.035 12.4025 42.8385 12.6758 42.6795C13.153 42.3992 13.6583 42.1695 14.1832 41.9943C14.6862 41.8196 15.1891 41.6771 15.6906 41.5531C17.7085 41.0734 19.7332 40.8411 21.7538 40.6623C25.8006 40.3492 29.8459 40.3382 33.8761 40.5465C29.8493 40.7836 25.8273 41.0556 21.8614 41.625C19.8826 41.9052 17.9058 42.2533 16.0236 42.8008C15.5543 42.9378 15.0925 43.0872 14.6533 43.2605C14.2272 43.4208 13.8187 43.6244 13.4343 43.8683C13.2768 43.968 13.1338 44.0891 13.0095 44.228C12.9701 44.2739 12.9369 44.3248 12.9108 44.3794C12.8991 44.4037 12.8939 44.4307 12.8958 44.4576C12.8958 44.4617 12.8958 44.4651 12.8958 44.4576C12.8958 44.4534 12.8958 44.448 12.8958 44.4452C12.8958 44.4425 12.8958 44.4411 12.9013 44.4452C12.9287 44.4844 12.9607 44.5203 12.9965 44.5521C13.1363 44.6728 13.2902 44.7761 13.4549 44.8598C13.8622 45.0658 14.2868 45.2356 14.7238 45.3675C15.1768 45.5107 15.6447 45.6416 16.1196 45.7532C17.0692 45.9807 18.0422 46.1602 19.0213 46.3144C20.9816 46.6214 22.9687 46.8276 24.9598 46.9845C28.9421 47.3182 32.9511 47.447 36.9567 47.4402C40.9623 47.4559 44.9734 47.3285 48.955 47.0085C50.9475 46.8571 52.9346 46.6543 54.8976 46.3562C55.8781 46.2061 56.8531 46.0321 57.8069 45.8122C58.7607 45.5922 59.7104 45.3373 60.5182 44.9605C60.7027 44.8756 60.8791 44.774 61.0451 44.6569C61.1056 44.6131 61.1621 44.5637 61.2137 44.5096C61.2513 44.4678 61.2692 44.437 61.2705 44.4411C61.2719 44.4452 61.2705 44.4507 61.2705 44.4617C61.272 44.4524 61.272 44.4429 61.2705 44.4336C61.2648 44.3939 61.2508 44.3558 61.2294 44.3219C61.1409 44.1847 61.028 44.0649 60.8964 43.9683C60.5805 43.723 60.164 43.5099 59.7316 43.3263C59.2877 43.1433 58.8346 42.9832 58.3743 42.8467C56.5044 42.2759 54.5276 41.9217 52.5502 41.6366C48.5891 41.0549 44.5664 40.785 40.5403 40.5472Z" fill="#1E1E1E"/>
<path d="M15.1974 56.6456L13.7866 46.3994C13.7866 46.3994 24.2515 48.3816 37.0829 48.3816C49.9144 48.3816 60.5163 46.3994 60.5163 46.3994L59.1007 56.6374C59.0076 57.3173 58.7203 57.9558 58.2731 58.4763C57.8259 58.9967 57.2379 59.377 56.5799 59.5714C52.9778 60.6314 45.4113 62.5129 37.0802 62.5129C28.7655 62.5129 21.2784 60.6375 17.7093 59.5769C17.0533 59.3812 16.4675 59.0007 16.022 58.4809C15.5765 57.9611 15.2903 57.3239 15.1974 56.6456Z" fill="#D18B0F" stroke="#1E1E1E" stroke-width="2" stroke-miterlimit="10"/>
<path d="M21.8498 25.6376L22.0889 27.5979L20.0662 27.8439L21.4996 39.6037L19.5654 39.8394L18.132 28.0796L16.11 28.3262L15.8708 26.3666L21.8498 25.6376Z" fill="#1E1E1E"/>
<path d="M26.5261 25.3169L27.4648 39.1049L25.5203 39.2371L24.5823 25.4492L26.5261 25.3169Z" fill="#1E1E1E"/>
<path d="M34.3182 31.1547L34.3744 33.128L31.8597 33.1965L32.0201 38.9L30.0721 38.9548L29.6836 25.1463L34.8362 25.001L34.8917 26.9744L31.6871 27.0648L31.8042 31.2287L34.3182 31.1547Z" fill="#1E1E1E"/>
<path d="M41.9334 31.2013L41.9018 33.1753L39.3865 33.1356L39.2954 38.8404L37.3474 38.8096L37.5674 24.9914L42.722 25.0737L42.6871 27.0477L39.4831 26.9963L39.4146 31.1615L41.9334 31.2013Z" fill="#1E1E1E"/>
<path d="M48.1213 25.1929C50.0124 25.3149 50.9038 26.6386 50.7613 28.8449L50.7332 29.2786L48.8948 29.1601L48.9311 28.5887C48.9949 27.6034 48.666 27.2066 48.0473 27.1662C47.4285 27.1258 47.0503 27.478 46.9866 28.4633C46.8036 31.2999 50.5701 32.0776 50.3152 36.0174C50.1727 38.2244 49.1018 39.4214 47.1921 39.2981C45.2825 39.1748 44.3747 37.8496 44.5199 35.6433L44.5747 34.7958L46.4131 34.915L46.3494 35.8996C46.2863 36.8849 46.6522 37.2645 47.2709 37.3049C47.8897 37.3453 48.2987 37.0151 48.3672 36.0298C48.5502 33.1931 44.7837 32.4154 45.0386 28.4756C45.1763 26.2686 46.2295 25.0709 48.1213 25.1929Z" fill="#1E1E1E"/>
<path d="M53.4307 25.7273L55.4485 26.0062L56.0652 32.4469L58.4003 26.4111L60.2428 26.6654L56.5428 35.4816L55.911 40.0203L53.9809 39.7544L54.6092 35.2185L53.4307 25.7273Z" fill="#1E1E1E"/>
<path d="M21.3181 13.479C21.094 13.9511 20.8919 14.3971 20.7658 14.8281C20.6398 15.2591 20.6055 15.6695 20.7124 15.9552C20.7638 16.0907 20.8458 16.2124 20.9522 16.3108C21.1054 16.4666 21.2676 16.6133 21.438 16.75C21.8032 17.0467 22.2287 17.3441 22.6665 17.6819C23.1044 18.0197 23.5614 18.3965 23.9307 18.9002C24.3103 19.388 24.5316 20.0602 24.4206 20.6679C24.3603 20.9943 24.2134 21.2984 23.9951 21.5484C23.7918 21.784 23.5535 21.9872 23.2887 22.1507C22.7715 22.4735 22.1973 22.6943 21.597 22.8009C21.9882 22.4158 22.3452 22.039 22.6097 21.6553C22.8742 21.2716 23.0208 20.8844 22.9571 20.6124C22.9084 20.265 22.7392 19.9896 22.4624 19.6936C22.1855 19.3976 21.7998 19.1084 21.3866 18.7974C20.9735 18.4863 20.5192 18.1533 20.0964 17.7484C19.8756 17.5417 19.6759 17.3135 19.5003 17.0673C19.2969 16.7801 19.1819 16.4398 19.1694 16.0882C19.1652 15.7744 19.2371 15.4643 19.379 15.1844C19.5107 14.9222 19.6806 14.6811 19.8833 14.4691C20.2872 14.0425 20.776 13.7052 21.3181 13.479Z" fill="#1E1E1E"/>
<path d="M35.8935 9.26713C35.8626 10.4278 35.8037 11.5392 35.9421 12.5738C35.9761 12.824 36.0265 13.0716 36.0929 13.3152C36.1292 13.4344 36.1662 13.5427 36.21 13.6578C36.2539 13.7729 36.3025 13.9038 36.3594 14.0264C36.4642 14.2717 36.5739 14.5184 36.702 14.7685L37.0761 15.5407C37.1994 15.8065 37.3214 16.082 37.4344 16.3629C37.5439 16.6509 37.6354 16.9454 37.7085 17.2447C37.8509 17.8439 37.8926 18.4627 37.8319 19.0756C37.805 19.3852 37.7444 19.6911 37.651 19.9875C37.4567 20.5879 37.1463 21.1443 36.7376 21.6251C36.531 21.877 36.2945 22.1027 36.0332 22.2973C36.3498 21.1613 36.4814 20.0937 36.3224 19.0851C36.2559 18.5715 36.1355 18.0662 35.9634 17.5777C35.8783 17.3276 35.7804 17.082 35.6701 16.8418C35.5646 16.5938 35.4447 16.3437 35.3206 16.0881C35.1966 15.8326 35.0767 15.5633 34.9589 15.2872C34.841 15.011 34.7341 14.7253 34.6457 14.4321C34.5992 14.2868 34.5663 14.1354 34.5265 13.9881C34.4877 13.8304 34.4609 13.6701 34.4464 13.5084C34.4156 13.1968 34.4193 12.8826 34.4573 12.5718C34.5303 11.9709 34.6919 11.3842 34.9369 10.8307C35.1797 10.2666 35.5018 9.74012 35.8935 9.26713Z" fill="#1E1E1E"/>
<path d="M51.5807 13.479C52.1227 13.7054 52.6114 14.0426 53.0154 14.4691C53.2181 14.6811 53.3881 14.9222 53.5197 15.1844C53.6613 15.4644 53.7333 15.7744 53.7294 16.0882C53.717 16.4399 53.6017 16.7804 53.3978 17.0673C53.2224 17.3135 53.0229 17.5417 52.8023 17.7484C52.3937 18.1236 51.9629 18.4739 51.5121 18.7974C51.101 19.1084 50.7132 19.4017 50.4364 19.6936C50.1596 19.9855 49.9903 20.265 49.941 20.6124C49.8766 20.8865 50.0225 21.2764 50.2891 21.6553C50.5556 22.0342 50.9105 22.4158 51.3018 22.8009C50.7013 22.6941 50.1269 22.4734 49.6094 22.1507C49.3447 21.9871 49.1067 21.784 48.9036 21.5484C48.6848 21.2988 48.5378 20.9945 48.4781 20.6679C48.3671 20.0602 48.5885 19.388 48.968 18.9002C49.3374 18.3965 49.7985 18.0217 50.2322 17.6819C50.6659 17.342 51.0955 17.0467 51.4607 16.75C51.6311 16.6133 51.7933 16.4666 51.9465 16.3108C52.0529 16.2126 52.1348 16.0908 52.1857 15.9552C52.2926 15.6695 52.2631 15.255 52.1329 14.8281C52.0027 14.4012 51.804 13.9511 51.5807 13.479Z" fill="#1E1E1E"/>
</svg>
