<svg width="207" height="60" viewBox="0 0 207 60" fill="none" xmlns="http://www.w3.org/2000/svg">
<path d="M204.985 53.0804C204.985 56.2779 202.361 58.8679 199.115 58.8679H7.02263C3.77845 58.8679 1.14514 56.2779 1.14514 53.0804V6.92712C1.14514 3.73116 3.77845 1.13208 7.02263 1.13208H199.114C202.361 1.13208 204.983 3.73116 204.983 6.92712L204.985 53.0804Z" fill="#1E1E1E"/>
<path d="M198.496 1.20188C202.03 1.20188 204.907 4.02751 204.907 7.50001V52.5C204.907 55.9725 202.03 58.7981 198.496 58.7981H7.63445C4.0997 58.7981 1.22342 55.9725 1.22342 52.5V7.50001C1.22342 4.02751 4.0997 1.20188 7.63445 1.20188H198.496ZM198.496 7.62939e-06H7.63445C3.43741 7.62939e-06 0 3.37688 0 7.50001V52.5C0 56.6231 3.43741 60 7.63445 60H198.496C202.693 60 206.13 56.6231 206.13 52.5V7.50001C206.13 3.37688 202.693 7.62939e-06 198.496 7.62939e-06Z" fill="#A6A6A6"/>
<path d="M46.0022 29.6759C45.9579 24.8414 50.0316 22.4894 50.2179 22.3799C47.9108 19.0754 44.3348 18.6239 43.0782 18.5879C40.0748 18.2774 37.1615 20.3534 35.6315 20.3534C34.0711 20.3534 31.7151 18.6179 29.1758 18.6689C25.9083 18.7184 22.8515 20.5769 21.1749 23.4629C17.715 29.3474 20.2955 37.9949 23.6103 42.7514C25.2685 45.0809 27.2062 47.6819 29.7423 47.5904C32.2235 47.4899 33.1503 46.0364 36.1446 46.0364C39.1113 46.0364 39.9816 47.5904 42.5682 47.5319C45.2311 47.4899 46.9076 45.1919 48.5078 42.8414C50.424 40.1714 51.1936 37.5419 51.2241 37.4069C51.1615 37.3859 46.0526 35.4704 46.0022 29.6759Z" fill="white"/>
<path d="M41.1161 15.4589C42.4506 13.8194 43.3637 11.5889 43.1102 9.32544C41.1787 9.40944 38.7632 10.6379 37.3722 12.2414C36.1415 13.6544 35.0422 15.9704 35.3262 18.1484C37.4959 18.3074 39.7236 17.0729 41.1161 15.4589Z" fill="white"/>
<path d="M74.894 15.0138C74.894 16.7793 74.355 18.1083 73.2785 19.0008C72.2815 19.8243 70.8645 20.2368 69.0292 20.2368C68.1192 20.2368 67.3405 20.1978 66.6885 20.1198V10.4733C67.539 10.3383 68.4551 10.2693 69.4445 10.2693C71.1928 10.2693 72.5105 10.6428 73.3992 11.3898C74.3947 12.2343 74.894 13.4418 74.894 15.0138ZM73.2068 15.0573C73.2068 13.9128 72.8983 13.0353 72.2815 12.4233C71.6646 11.8128 70.7638 11.5068 69.5774 11.5068C69.0735 11.5068 68.6444 11.5398 68.2887 11.6088V18.9423C68.4856 18.9723 68.846 18.9858 69.3697 18.9858C70.5943 18.9858 71.5394 18.6513 72.2051 17.9823C72.8709 17.3133 73.2068 16.3383 73.2068 15.0573Z" fill="white"/>
<path d="M83.8401 16.5556C83.8401 17.6431 83.524 18.5341 82.8919 19.2331C82.2292 19.9516 81.3512 20.3101 80.2549 20.3101C79.1983 20.3101 78.357 19.9666 77.7294 19.2766C77.1034 18.5881 76.7904 17.7196 76.7904 16.6726C76.7904 15.5776 77.1126 14.6791 77.76 13.9816C78.4074 13.2841 79.2777 12.9346 80.374 12.9346C81.4306 12.9346 82.2796 13.2781 82.9224 13.9666C83.5332 14.6356 83.8401 15.4996 83.8401 16.5556ZM82.1803 16.6066C82.1803 15.9541 82.0368 15.3946 81.7513 14.9281C81.4154 14.3641 80.9374 14.0821 80.316 14.0821C79.6732 14.0821 79.1846 14.3641 78.8487 14.9281C78.5616 15.3946 78.4196 15.9631 78.4196 16.6351C78.4196 17.2876 78.5631 17.8471 78.8487 18.3136C79.1953 18.8776 79.6778 19.1596 80.3007 19.1596C80.9115 19.1596 81.3909 18.8731 81.736 18.2986C82.0322 17.8231 82.1803 17.2591 82.1803 16.6066Z" fill="white"/>
<path d="M95.8353 13.0784L93.5831 20.1494H92.1173L91.1844 17.0789C90.9477 16.3124 90.7553 15.5504 90.6057 14.7944H90.5767C90.4377 15.5714 90.2453 16.3319 89.998 17.0789L89.007 20.1494H87.5244L85.4066 13.0784H87.0511L87.8649 16.4399C88.0619 17.2349 88.2237 17.9924 88.3535 18.7094H88.3825C88.5016 18.1184 88.6986 17.3654 88.9765 16.4549L89.998 13.0799H91.3019L92.2807 16.3829C92.5173 17.1884 92.7097 17.9639 92.8578 18.7109H92.9021C93.0105 17.9834 93.1739 17.2079 93.3907 16.3829L94.2641 13.0799H95.8353V13.0784Z" fill="white"/>
<path d="M104.131 20.1494H102.531V16.0994C102.531 14.8514 102.048 14.2274 101.08 14.2274C100.605 14.2274 100.222 14.3984 99.9243 14.7419C99.6296 15.0854 99.48 15.4904 99.48 15.9539V20.1479H97.8798V15.0989C97.8798 14.4779 97.8599 13.8044 97.8218 13.0754H99.228L99.3029 14.1809H99.3471C99.5334 13.8374 99.8113 13.5539 100.176 13.3274C100.61 13.0634 101.095 12.9299 101.627 12.9299C102.299 12.9299 102.857 13.1429 103.302 13.5704C103.855 14.0939 104.131 14.8754 104.131 15.9134V20.1494Z" fill="white"/>
<path d="M108.544 20.1495H106.945V9.83398H108.544V20.1495Z" fill="white"/>
<path d="M117.965 16.5556C117.965 17.6431 117.648 18.5341 117.016 19.2331C116.354 19.9516 115.474 20.3101 114.379 20.3101C113.321 20.3101 112.48 19.9666 111.854 19.2766C111.228 18.5881 110.915 17.7196 110.915 16.6726C110.915 15.5776 111.237 14.6791 111.884 13.9816C112.532 13.2841 113.402 12.9346 114.497 12.9346C115.555 12.9346 116.402 13.2781 117.047 13.9666C117.658 14.6356 117.965 15.4996 117.965 16.5556ZM116.303 16.6066C116.303 15.9541 116.16 15.3946 115.874 14.9281C115.54 14.3641 115.06 14.0821 114.44 14.0821C113.796 14.0821 113.307 14.3641 112.973 14.9281C112.686 15.3946 112.544 15.9631 112.544 16.6351C112.544 17.2876 112.688 17.8471 112.973 18.3136C113.32 18.8776 113.802 19.1596 114.425 19.1596C115.036 19.1596 115.514 18.8731 115.859 18.2986C116.157 17.8231 116.303 17.2591 116.303 16.6066Z" fill="white"/>
<path d="M125.709 20.1496H124.272L124.153 19.3351H124.109C123.617 19.9846 122.916 20.3101 122.006 20.3101C121.327 20.3101 120.777 20.0956 120.363 19.6696C119.988 19.2826 119.8 18.8011 119.8 18.2296C119.8 17.3656 120.166 16.7071 120.904 16.2511C121.64 15.7951 122.675 15.5716 124.008 15.5821V15.4501C124.008 14.5186 123.51 14.0536 122.513 14.0536C121.803 14.0536 121.177 14.2291 120.637 14.5771L120.311 13.5451C120.98 13.1386 121.806 12.9346 122.78 12.9346C124.661 12.9346 125.605 13.9096 125.605 15.8596V18.4636C125.605 19.1701 125.64 19.7326 125.709 20.1496ZM124.048 17.7196V16.6291C122.283 16.5991 121.4 17.0746 121.4 18.0541C121.4 18.4231 121.501 18.6991 121.707 18.8836C121.913 19.0681 122.176 19.1596 122.489 19.1596C122.84 19.1596 123.168 19.0501 123.467 18.8326C123.768 18.6136 123.953 18.3361 124.022 17.9956C124.038 17.9191 124.048 17.8261 124.048 17.7196Z" fill="white"/>
<path d="M134.802 20.1495H133.382L133.307 19.014H133.262C132.809 19.878 132.036 20.31 130.951 20.31C130.083 20.31 129.361 19.9755 128.789 19.3065C128.216 18.6375 127.931 17.769 127.931 16.7025C127.931 15.558 128.241 14.631 128.863 13.923C129.467 13.263 130.206 12.933 131.085 12.933C132.052 12.933 132.728 13.2525 133.113 13.893H133.143V9.83398H134.745V18.2445C134.745 18.933 134.763 19.5675 134.802 20.1495ZM133.143 17.1675V15.9885C133.143 15.7845 133.128 15.6195 133.099 15.4935C133.009 15.1155 132.815 14.7975 132.52 14.541C132.223 14.2845 131.864 14.1555 131.45 14.1555C130.853 14.1555 130.386 14.388 130.042 14.8545C129.702 15.321 129.529 15.9165 129.529 16.644C129.529 17.343 129.693 17.91 130.021 18.3465C130.367 18.8115 130.835 19.044 131.419 19.044C131.945 19.044 132.365 18.8505 132.684 18.462C132.992 18.1035 133.143 17.6715 133.143 17.1675Z" fill="white"/>
<path d="M148.487 16.5556C148.487 17.6431 148.171 18.5341 147.539 19.2331C146.876 19.9516 146 20.3101 144.902 20.3101C143.847 20.3101 143.005 19.9666 142.376 19.2766C141.75 18.5881 141.437 17.7196 141.437 16.6726C141.437 15.5776 141.76 14.6791 142.407 13.9816C143.054 13.2841 143.925 12.9346 145.023 12.9346C146.078 12.9346 146.928 13.2781 147.569 13.9666C148.18 14.6356 148.487 15.4996 148.487 16.5556ZM146.829 16.6066C146.829 15.9541 146.685 15.3946 146.4 14.9281C146.062 14.3641 145.586 14.0821 144.963 14.0821C144.322 14.0821 143.833 14.3641 143.496 14.9281C143.209 15.3946 143.067 15.9631 143.067 16.6351C143.067 17.2876 143.21 17.8471 143.496 18.3136C143.842 18.8776 144.325 19.1596 144.948 19.1596C145.558 19.1596 146.039 18.8731 146.385 18.2986C146.679 17.8231 146.829 17.2591 146.829 16.6066Z" fill="white"/>
<path d="M157.091 20.1494H155.492V16.0994C155.492 14.8514 155.01 14.2274 154.04 14.2274C153.565 14.2274 153.182 14.3984 152.886 14.7419C152.59 15.0854 152.442 15.4904 152.442 15.9539V20.1479H150.84V15.0989C150.84 14.4779 150.822 13.8044 150.783 13.0754H152.188L152.263 14.1809H152.307C152.495 13.8374 152.773 13.5539 153.136 13.3274C153.572 13.0634 154.056 12.9299 154.588 12.9299C155.259 12.9299 155.818 13.1429 156.262 13.5704C156.816 14.0939 157.091 14.8754 157.091 15.9134V20.1494Z" fill="white"/>
<path d="M167.86 14.2559H166.098V17.6909C166.098 18.5639 166.411 19.0004 167.031 19.0004C167.318 19.0004 167.556 18.9764 167.744 18.9269L167.785 20.1194C167.469 20.2364 167.054 20.2949 166.543 20.2949C165.91 20.2949 165.419 20.1059 165.063 19.7279C164.706 19.3499 164.529 18.7139 164.529 17.8214V14.2559H163.477V13.0784H164.529V11.7824L166.097 11.3174V13.0769H167.859V14.2559H167.86Z" fill="white"/>
<path d="M176.331 20.1495H174.73V16.1295C174.73 14.862 174.247 14.2275 173.281 14.2275C172.539 14.2275 172.032 14.595 171.754 15.33C171.706 15.4845 171.679 15.6735 171.679 15.8955V20.148H170.08V9.83398H171.679V14.0955H171.71C172.213 13.32 172.936 12.933 173.872 12.933C174.534 12.933 175.082 13.146 175.518 13.5735C176.06 14.106 176.331 14.898 176.331 15.945V20.1495Z" fill="white"/>
<path d="M185.07 16.2794C185.07 16.5614 185.048 16.7984 185.01 16.9919H180.211C180.233 17.6909 180.462 18.2234 180.906 18.5924C181.312 18.9224 181.836 19.0874 182.477 19.0874C183.187 19.0874 183.835 18.9764 184.418 18.7529L184.668 19.8449C183.986 20.1359 183.183 20.2814 182.253 20.2814C181.138 20.2814 180.26 19.9589 179.625 19.3139C178.987 18.6689 178.671 17.8034 178.671 16.7174C178.671 15.6509 178.965 14.7629 179.559 14.0549C180.179 13.2989 181.017 12.9209 182.076 12.9209C183.111 12.9209 183.897 13.2989 184.429 14.0549C184.858 14.6549 185.07 15.3974 185.07 16.2794ZM183.543 15.8729C183.555 15.4064 183.45 15.0044 183.233 14.6654C182.955 14.2289 182.532 14.0099 181.96 14.0099C181.437 14.0099 181.011 14.2229 180.686 14.6504C180.42 14.9909 180.263 15.3974 180.211 15.8729H183.543Z" fill="white"/>
<path d="M81.91 47.2562H78.4424L76.543 41.3927H69.9407L68.1313 47.2562H64.7554L71.2966 27.2942H75.3367L81.91 47.2562ZM75.9704 38.9327L74.2526 33.7202C74.0709 33.1877 73.7304 31.9337 73.2281 29.9597H73.167C72.967 30.8087 72.6448 32.0627 72.202 33.7202L70.5148 38.9327H75.9704Z" fill="white"/>
<path d="M98.7317 39.8819C98.7317 42.3299 98.0583 44.2649 96.7116 45.6854C95.5054 46.9499 94.0075 47.5814 92.2195 47.5814C90.2895 47.5814 88.9031 46.9004 88.0587 45.5384H87.9977V53.1209H84.7423V37.6004C84.7423 36.0614 84.7011 34.4819 84.6217 32.8619H87.4846L87.6663 35.1434H87.7274C88.813 33.4244 90.4605 32.5664 92.6715 32.5664C94.3999 32.5664 95.8428 33.2369 96.9971 34.5794C98.1545 35.9234 98.7317 37.6904 98.7317 39.8819ZM95.4153 39.9989C95.4153 38.5979 95.0946 37.4429 94.4503 36.5339C93.7464 35.5859 92.8012 35.1119 91.6164 35.1119C90.8132 35.1119 90.0834 35.3759 89.4314 35.8964C88.7779 36.4214 88.3504 37.1069 88.1503 37.9559C88.0496 38.3519 87.9992 38.6759 87.9992 38.9309V41.3309C87.9992 42.3779 88.3259 43.2614 88.9794 43.9829C89.633 44.7044 90.4819 45.0644 91.5263 45.0644C92.7524 45.0644 93.7067 44.5994 94.3892 43.6724C95.0733 42.7439 95.4153 41.5199 95.4153 39.9989Z" fill="white"/>
<path d="M115.584 39.8819C115.584 42.3299 114.911 44.2649 113.562 45.6854C112.358 46.9499 110.86 47.5814 109.072 47.5814C107.142 47.5814 105.755 46.9004 104.913 45.5384H104.852V53.1209H101.596V37.6004C101.596 36.0614 101.555 34.4819 101.476 32.8619H104.339L104.52 35.1434H104.581C105.665 33.4244 107.313 32.5664 109.525 32.5664C111.252 32.5664 112.695 33.2369 113.853 34.5794C115.005 35.9234 115.584 37.6904 115.584 39.8819ZM112.268 39.9989C112.268 38.5979 111.945 37.4429 111.301 36.5339C110.597 35.5859 109.655 35.1119 108.469 35.1119C107.664 35.1119 106.936 35.3759 106.282 35.8964C105.629 36.4214 105.203 37.1069 105.003 37.9559C104.903 38.3519 104.852 38.6759 104.852 38.9309V41.3309C104.852 42.3779 105.178 43.2614 105.829 43.9829C106.482 44.7029 107.331 45.0644 108.379 45.0644C109.605 45.0644 110.559 44.5994 111.242 43.6724C111.926 42.7439 112.268 41.5199 112.268 39.9989Z" fill="white"/>
<path d="M134.426 41.658C134.426 43.356 133.826 44.7375 132.621 45.804C131.297 46.9695 129.454 47.5515 127.086 47.5515C124.9 47.5515 123.147 47.1375 121.82 46.308L122.574 43.6425C124.003 44.4915 125.571 44.9175 127.28 44.9175C128.506 44.9175 129.46 44.6445 130.146 44.1015C130.828 43.5585 131.169 42.8295 131.169 41.9205C131.169 41.1105 130.888 40.428 130.325 39.8745C129.764 39.321 128.828 38.8065 127.521 38.331C123.964 37.0275 122.186 35.118 122.186 32.607C122.186 30.966 122.809 29.6205 124.057 28.5735C125.3 27.525 126.958 27.0015 129.031 27.0015C130.88 27.0015 132.416 27.318 133.643 27.9495L132.829 30.5565C131.684 29.9445 130.389 29.6385 128.94 29.6385C127.795 29.6385 126.9 29.916 126.259 30.468C125.716 30.9615 125.445 31.563 125.445 32.2755C125.445 33.0645 125.755 33.717 126.378 34.23C126.92 34.704 127.904 35.217 129.334 35.7705C131.082 36.462 132.366 37.2705 133.192 38.1975C134.015 39.1215 134.426 40.278 134.426 41.658Z" fill="white"/>
<path d="M145.189 35.2619H141.601V42.2504C141.601 44.0279 142.233 44.9159 143.5 44.9159C144.082 44.9159 144.564 44.8664 144.946 44.7674L145.036 47.1959C144.395 47.4314 143.551 47.5499 142.505 47.5499C141.219 47.5499 140.214 47.1644 139.489 46.3949C138.767 45.6239 138.403 44.3309 138.403 42.5144V35.2589H136.266V32.8589H138.403V30.2234L141.601 29.2754V32.8589H145.189V35.2619Z" fill="white"/>
<path d="M161.379 39.9404C161.379 42.1529 160.734 43.9694 159.449 45.3899C158.1 46.8524 156.311 47.5814 154.08 47.5814C151.93 47.5814 150.218 46.8809 148.942 45.4799C147.666 44.0789 147.027 42.3104 147.027 40.1789C147.027 37.9484 147.684 36.1214 149.002 34.7009C150.316 33.2789 152.09 32.5679 154.321 32.5679C156.471 32.5679 158.201 33.2684 159.507 34.6709C160.756 36.0314 161.379 37.7879 161.379 39.9404ZM158.001 40.0439C158.001 38.7164 157.712 37.5779 157.128 36.6284C156.445 35.4794 155.469 34.9064 154.205 34.9064C152.897 34.9064 151.903 35.4809 151.22 36.6284C150.635 37.5794 150.347 38.7359 150.347 40.1039C150.347 41.4314 150.635 42.5699 151.22 43.5179C151.924 44.6669 152.907 45.2399 154.176 45.2399C155.419 45.2399 156.395 44.6549 157.099 43.4879C157.699 42.5204 158.001 41.3699 158.001 40.0439Z" fill="white"/>
<path d="M171.96 35.6744C171.638 35.6159 171.294 35.5859 170.934 35.5859C169.789 35.5859 168.903 36.0104 168.28 36.8609C167.738 37.6109 167.466 38.5589 167.466 39.7034V47.2559H164.212L164.243 37.3949C164.243 35.7359 164.202 34.2254 164.121 32.8634H166.956L167.075 35.6174H167.165C167.509 34.6709 168.051 33.9089 168.793 33.3374C169.518 32.8229 170.302 32.5664 171.146 32.5664C171.447 32.5664 171.719 32.5874 171.96 32.6249V35.6744Z" fill="white"/>
<path d="M186.519 39.378C186.519 39.951 186.481 40.434 186.4 40.8285H176.634C176.672 42.2505 177.144 43.338 178.051 44.088C178.874 44.7585 179.938 45.0945 181.245 45.0945C182.691 45.0945 184.01 44.868 185.196 44.4135L185.706 46.6335C184.32 47.2275 182.683 47.523 180.794 47.523C178.522 47.523 176.739 46.866 175.441 45.5535C174.146 44.241 173.497 42.4785 173.497 40.2675C173.497 38.097 174.101 36.2895 175.308 34.848C176.573 33.309 178.281 32.5396 180.431 32.5396C182.543 32.5396 184.141 33.309 185.227 34.848C186.087 36.0705 186.519 37.5826 186.519 39.378ZM183.415 38.5485C183.436 37.6005 183.224 36.7815 182.782 36.09C182.219 35.2005 181.353 34.7565 180.188 34.7565C179.124 34.7565 178.258 35.1901 177.597 36.0601C177.055 36.7516 176.733 37.581 176.634 38.547H183.415V38.5485Z" fill="white"/>
</svg>
