<svg width="20" height="20" viewBox="0 0 20 20" fill="none" xmlns="http://www.w3.org/2000/svg">
<g clip-path="url(#clip0_1_79731)">
<path d="M8.54001 12.7399C8.54001 11.8699 8.30001 11.1299 7.82001 10.5199C7.09001 9.59994 5.68001 9.48994 4.86001 9.66994C4.52001 7.73994 6.16001 5.27994 8.28 4.21994L6.65001 1.93994C3.45001 3.45994 0.310005 6.95994 0.850005 11.3699C1.19001 14.1599 2.80001 15.9999 5.08001 15.9999C6.08001 15.9999 6.91001 15.7099 7.56001 15.1199C8.22001 14.5299 8.54001 13.7399 8.54001 12.7399ZM17.97 12.7399C17.97 11.8699 17.73 11.1299 17.25 10.5199C16.52 9.59994 15.11 9.48994 14.29 9.66994C13.95 7.73994 15.59 5.27994 17.71 4.21994L16.08 1.93994C12.88 3.45994 9.74 6.95994 10.28 11.3699C10.62 14.1599 12.23 15.9999 14.51 15.9999C15.51 15.9999 16.34 15.7099 16.99 15.1199C17.65 14.5299 17.97 13.7399 17.97 12.7399Z" fill="#1E1E1E"/>
</g>
<defs>
<clipPath id="clip0_1_79731">
<rect width="20" height="20" fill="white"/>
</clipPath>
</defs>
</svg>
