<svg width="211" height="60" viewBox="0 0 211 60" fill="none" xmlns="http://www.w3.org/2000/svg">
<path d="M202.907 60H7.8041C3.5138 60 0 56.6231 0 52.5V7.50001C0 3.37688 3.5138 9.53674e-06 7.8041 9.53674e-06H202.907C207.197 9.53674e-06 210.711 3.37688 210.711 7.50001V52.5C210.711 56.6231 207.197 60 202.907 60Z" fill="#1E1E1E"/>
<path d="M202.907 1.20188C206.52 1.20188 209.46 4.02751 209.46 7.50001V52.5C209.46 55.9725 206.52 58.7981 202.907 58.7981H7.8041C4.1908 58.7981 1.25061 55.9725 1.25061 52.5V7.50001C1.25061 4.02751 4.1908 1.20188 7.8041 1.20188H202.907ZM202.907 9.53674e-06H7.8041C3.5138 9.53674e-06 0 3.37688 0 7.50001V52.5C0 56.6231 3.5138 60 7.8041 60H202.907C207.197 60 210.711 56.6231 210.711 52.5V7.50001C210.711 3.37688 207.197 9.53674e-06 202.907 9.53674e-06Z" fill="#A6A6A6"/>
<path d="M16.2872 11.3083C15.8287 11.7695 15.5634 12.4877 15.5634 13.4177V46.5902C15.5634 47.5202 15.8287 48.2383 16.2872 48.6995L16.4003 48.8008L35.7428 30.2195V29.7808L16.4003 11.1995L16.2872 11.3083Z" fill="url(#paint0_linear_54_27520)"/>
<path d="M42.1831 36.4163L35.7428 30.2194V29.7806L42.1909 23.5838L42.3353 23.6644L49.9716 27.84C52.1509 29.025 52.1509 30.975 49.9716 32.1675L42.3353 36.3356L42.1831 36.4163Z" fill="url(#paint1_linear_54_27520)"/>
<path d="M42.3353 36.3357L35.7427 30.0001L16.2871 48.6995C17.0109 49.4307 18.1913 49.5188 19.5336 48.7876L42.3353 36.3357Z" fill="url(#paint2_linear_54_27520)"/>
<path d="M42.3353 23.6644L19.5336 11.2125C18.1913 10.4888 17.0109 10.5769 16.2871 11.3081L35.7427 30L42.3353 23.6644Z" fill="url(#paint3_linear_54_27520)"/>
<path d="M74.0102 15.3655C74.0102 16.618 73.62 17.6211 72.8513 18.3692C71.9675 19.2561 70.8164 19.7024 69.4058 19.7024C68.0576 19.7024 66.9065 19.2486 65.9622 18.3542C65.016 17.4467 64.5438 16.333 64.5438 14.9999C64.5438 13.6667 65.016 12.553 65.9622 11.653C66.9065 10.7511 68.0576 10.2974 69.4058 10.2974C70.0769 10.2974 70.7169 10.4305 71.3275 10.678C71.9363 10.9274 72.4318 11.2649 72.7908 11.6811L71.9753 12.4724C71.349 11.7617 70.4964 11.4111 69.4058 11.4111C68.4225 11.4111 67.5699 11.7411 66.846 12.4067C66.13 13.0742 65.771 13.9386 65.771 14.9999C65.771 16.0611 66.13 16.933 66.846 17.6005C67.5699 18.2586 68.4225 18.5961 69.4058 18.5961C70.4496 18.5961 71.3275 18.2586 72.0202 17.593C72.4767 17.1524 72.7362 16.5449 72.8045 15.7686H69.4058V14.6849H73.94C73.9946 14.9192 74.0102 15.1461 74.0102 15.3655Z" fill="white" stroke="white" stroke-width="0.16" stroke-miterlimit="10"/>
<path d="M81.2036 11.608H76.9445V14.458H80.7841V15.5418H76.9445V18.3918H81.2036V19.4962H75.7388V10.5037H81.2036V11.608Z" fill="white" stroke="white" stroke-width="0.16" stroke-miterlimit="10"/>
<path d="M86.2802 19.4962H85.0745V11.608H82.462V10.5037H88.8946V11.608H86.2802V19.4962Z" fill="white" stroke="white" stroke-width="0.16" stroke-miterlimit="10"/>
<path d="M93.5498 19.4962V10.5037H94.7536V19.4962H93.5498Z" fill="white" stroke="white" stroke-width="0.16" stroke-miterlimit="10"/>
<path d="M100.09 19.4962H98.8935V11.608H96.2714V10.5037H102.712V11.608H100.09V19.4962Z" fill="white" stroke="white" stroke-width="0.16" stroke-miterlimit="10"/>
<path d="M114.89 18.3392C113.967 19.2486 112.824 19.7024 111.46 19.7024C110.089 19.7024 108.945 19.2486 108.022 18.3392C107.102 17.4317 106.643 16.318 106.643 14.9999C106.643 13.6817 107.102 12.568 108.022 11.6605C108.945 10.7511 110.089 10.2974 111.46 10.2974C112.816 10.2974 113.959 10.7511 114.882 11.668C115.811 12.583 116.269 13.6892 116.269 14.9999C116.269 16.318 115.811 17.4317 114.89 18.3392ZM108.914 17.5855C109.609 18.2586 110.453 18.5961 111.46 18.5961C112.459 18.5961 113.312 18.2586 113.998 17.5855C114.691 16.9124 115.042 16.048 115.042 14.9999C115.042 13.9517 114.691 13.0874 113.998 12.4142C113.312 11.7411 112.459 11.4036 111.46 11.4036C110.453 11.4036 109.609 11.7411 108.914 12.4142C108.221 13.0874 107.87 13.9517 107.87 14.9999C107.87 16.048 108.221 16.9124 108.914 17.5855Z" fill="white" stroke="white" stroke-width="0.16" stroke-miterlimit="10"/>
<path d="M117.961 19.4962V10.5037H119.424L123.974 17.4974H124.027L123.974 15.7687V10.5037H125.178V19.4962H123.921L119.157 12.1574H119.104L119.157 13.8937V19.4962H117.961Z" fill="white" stroke="white" stroke-width="0.16" stroke-miterlimit="10"/>
<path d="M106.347 32.6287C102.681 32.6287 99.6858 35.31 99.6858 39.0093C99.6858 42.6787 102.681 45.3881 106.347 45.3881C110.02 45.3881 113.015 42.6787 113.015 39.0093C113.015 35.31 110.02 32.6287 106.347 32.6287ZM106.347 42.8756C104.335 42.8756 102.605 41.28 102.605 39.0093C102.605 36.7087 104.335 35.1412 106.347 35.1412C108.358 35.1412 110.096 36.7087 110.096 39.0093C110.096 41.28 108.358 42.8756 106.347 42.8756ZM91.8134 32.6287C88.1396 32.6287 85.1526 35.31 85.1526 39.0093C85.1526 42.6787 88.1396 45.3881 91.8134 45.3881C95.4852 45.3881 98.4742 42.6787 98.4742 39.0093C98.4742 35.31 95.4852 32.6287 91.8134 32.6287ZM91.8134 42.8756C89.7999 42.8756 88.0635 41.28 88.0635 39.0093C88.0635 36.7087 89.7999 35.1412 91.8134 35.1412C93.8249 35.1412 95.5555 36.7087 95.5555 39.0093C95.5555 41.28 93.8249 42.8756 91.8134 42.8756ZM74.5195 34.5843V37.2956H81.2564C81.0593 38.8106 80.5326 39.9243 79.7248 40.7006C78.7415 41.6381 77.21 42.6787 74.5195 42.6787C70.3736 42.6787 67.1271 39.4631 67.1271 35.4787C67.1271 31.4943 70.3736 28.2787 74.5195 28.2787C76.7612 28.2787 78.3923 29.1206 79.5961 30.2118L81.5842 28.3012C79.9004 26.7562 77.6607 25.5693 74.5195 25.5693C68.8342 25.5693 64.0562 30.015 64.0562 35.4787C64.0562 40.9425 68.8342 45.3881 74.5195 45.3881C77.5924 45.3881 79.9004 44.4206 81.7149 42.6056C83.5742 40.8187 84.1537 38.3062 84.1537 36.2775C84.1537 35.6475 84.099 35.0681 84.0015 34.5843H74.5195ZM145.236 36.6862C144.688 35.2593 142.997 32.6287 139.551 32.6287C136.137 32.6287 133.294 35.2143 133.294 39.0093C133.294 42.5831 136.108 45.3881 139.879 45.3881C142.928 45.3881 144.688 43.6012 145.412 42.5606L143.149 41.1112C142.394 42.1725 141.366 42.8756 139.879 42.8756C138.402 42.8756 137.343 42.225 136.664 40.9425L145.543 37.4118L145.236 36.6862ZM136.184 38.8106C136.108 36.3506 138.172 35.0906 139.651 35.0906C140.809 35.0906 141.793 35.6475 142.121 36.4443L136.184 38.8106ZM128.967 45H131.885V26.25H128.967V45ZM124.187 34.05H124.089C123.434 33.3037 122.183 32.6287 120.599 32.6287C117.274 32.6287 114.235 35.4337 114.235 39.03C114.235 42.6056 117.274 45.3881 120.599 45.3881C122.183 45.3881 123.434 44.7075 124.089 43.9387H124.187V44.8537C124.187 47.2931 122.831 48.6037 120.644 48.6037C118.86 48.6037 117.754 47.3662 117.298 46.3256L114.759 47.3437C115.491 49.035 117.428 51.1162 120.644 51.1162C124.066 51.1162 126.953 49.1812 126.953 44.4731V33.0168H124.187V34.05ZM120.849 42.8756C118.837 42.8756 117.153 41.2575 117.153 39.03C117.153 36.7818 118.837 35.1412 120.849 35.1412C122.831 35.1412 124.394 36.7818 124.394 39.03C124.394 41.2575 122.831 42.8756 120.849 42.8756ZM158.901 26.25H151.921V45H154.832V37.8956H158.901C162.134 37.8956 165.305 35.6475 165.305 32.0718C165.305 28.4981 162.126 26.25 158.901 26.25ZM158.977 35.2875H154.832V28.8581H158.977C161.151 28.8581 162.392 30.5925 162.392 32.0718C162.392 33.5231 161.151 35.2875 158.977 35.2875ZM176.972 32.5931C174.869 32.5931 172.681 33.4856 171.782 35.4637L174.365 36.5043C174.921 35.4637 175.944 35.1262 177.024 35.1262C178.535 35.1262 180.066 35.9981 180.089 37.5375V37.7343C179.563 37.4418 178.435 37.0087 177.048 37.0087C174.266 37.0087 171.431 38.4806 171.431 41.2275C171.431 43.74 173.71 45.3581 176.271 45.3581C178.23 45.3581 179.311 44.5087 179.99 43.5206H180.089V44.97H182.901V37.7775C182.901 34.4531 180.318 32.5931 176.972 32.5931ZM176.621 42.8681C175.668 42.8681 174.342 42.4143 174.342 41.28C174.342 39.8287 175.996 39.2718 177.428 39.2718C178.71 39.2718 179.311 39.5437 180.089 39.9018C179.861 41.6381 178.306 42.8681 176.621 42.8681ZM193.144 33.0037L189.798 41.1318H189.698L186.239 33.0037H183.1L188.297 44.3625L185.332 50.6831H188.374L196.382 33.0037H193.144ZM166.904 45H169.823V26.25H166.904V45Z" fill="white"/>
<defs>
<linearGradient id="paint0_linear_54_27520" x1="34.0254" y1="46.9356" x2="8.87171" y2="20.762" gradientUnits="userSpaceOnUse">
<stop stop-color="#00A0FF"/>
<stop offset="0.0066" stop-color="#00A1FF"/>
<stop offset="0.2601" stop-color="#00BEFF"/>
<stop offset="0.5122" stop-color="#00D2FF"/>
<stop offset="0.7604" stop-color="#00DFFF"/>
<stop offset="1" stop-color="#00E3FF"/>
</linearGradient>
<linearGradient id="paint1_linear_54_27520" x1="52.8094" y1="29.9979" x2="15.0424" y2="29.9979" gradientUnits="userSpaceOnUse">
<stop stop-color="#FFE000"/>
<stop offset="0.4087" stop-color="#FFBD00"/>
<stop offset="0.7754" stop-color="#FFA500"/>
<stop offset="1" stop-color="#FF9C00"/>
</linearGradient>
<linearGradient id="paint2_linear_54_27520" x1="38.7504" y1="26.5559" x2="4.63994" y2="-8.93765" gradientUnits="userSpaceOnUse">
<stop stop-color="#FF3A44"/>
<stop offset="1" stop-color="#C31162"/>
</linearGradient>
<linearGradient id="paint3_linear_54_27520" x1="11.3897" y1="59.7357" x2="26.6216" y2="43.8864" gradientUnits="userSpaceOnUse">
<stop stop-color="#32A071"/>
<stop offset="0.0685" stop-color="#2DA771"/>
<stop offset="0.4762" stop-color="#15CF74"/>
<stop offset="0.8009" stop-color="#06E775"/>
<stop offset="1" stop-color="#00F076"/>
</linearGradient>
</defs>
</svg>
