<svg width="24" height="24" viewBox="0 0 24 24" fill="none" xmlns="http://www.w3.org/2000/svg">
<g clip-path="url(#clip0_288_27084)">
<path d="M23.988 12.2245C23.988 11.2413 23.9063 10.5238 23.7296 9.77966H12.239V14.2176H18.9837C18.8478 15.3205 18.1135 16.9815 16.4817 18.0976L16.4588 18.2462L20.0919 20.9964L20.3436 21.0209C22.6553 18.9347 23.988 15.8653 23.988 12.2245Z" fill="#4285F4"/>
<path d="M12.239 23.9176C15.5434 23.9176 18.3174 22.8545 20.3436 21.0209L16.4817 18.0976C15.4482 18.8018 14.0611 19.2934 12.239 19.2934C9.00263 19.2934 6.25578 17.2074 5.27661 14.324L5.13308 14.3359L1.35531 17.1927L1.30591 17.3269C3.31844 21.2334 7.45235 23.9176 12.239 23.9176Z" fill="#34A853"/>
<path d="M5.2766 14.3239C5.01823 13.5798 4.86871 12.7825 4.86871 11.9587C4.86871 11.1349 5.01823 10.3376 5.263 9.59354L5.25616 9.43507L1.43105 6.53235L1.3059 6.59052C0.476436 8.21162 0.000488281 10.032 0.000488281 11.9587C0.000488281 13.8854 0.476436 15.7058 1.3059 17.3269L5.2766 14.3239Z" fill="#FBBC05"/>
<path d="M12.239 4.62403C14.5371 4.62403 16.0873 5.59402 16.9712 6.40461L20.4252 3.10928C18.3039 1.1826 15.5434 0 12.239 0C7.45235 0 3.31844 2.68406 1.30591 6.59056L5.26301 9.59359C6.25578 6.7102 9.00263 4.62403 12.239 4.62403Z" fill="#EB4335"/>
</g>
<defs>
<clipPath id="clip0_288_27084">
<rect width="24" height="24" fill="white"/>
</clipPath>
</defs>
</svg>
